<mxfile host="Electron" modified="2024-07-31T17:25:00.617Z" agent="Mozilla/5.0 (Windows NT 10.0; Win64; x64) AppleWebKit/537.36 (KHTML, like Gecko) draw.io/24.5.3 Chrome/124.0.6367.207 Electron/30.0.6 Safari/537.36" etag="8lMEolRYAW_VJ6Ggfnmh" version="24.5.3" type="device">
  <diagram name="Page-1" id="fLsCUB5fLB1pzjc39HGu">
    <mxGraphModel dx="797" dy="464" grid="1" gridSize="10" guides="1" tooltips="1" connect="1" arrows="1" fold="1" page="1" pageScale="1" pageWidth="1169" pageHeight="827" math="0" shadow="0">
      <root>
        <mxCell id="0" />
        <mxCell id="1" parent="0" />
        <mxCell id="D9XH6T5DLdlmPWoyjA8w-1" value="ERD Manajemen Magang&amp;nbsp;" style="shape=umlFrame;whiteSpace=wrap;html=1;pointerEvents=0;width=190;height=30;" parent="1" vertex="1">
          <mxGeometry x="50" y="34" width="1090" height="760" as="geometry" />
        </mxCell>
        <mxCell id="k1eU6KsLXiB16MR6_f5D-7" value="Nama" style="ellipse;whiteSpace=wrap;html=1;align=center;" parent="1" vertex="1">
          <mxGeometry x="1000" y="178" width="100" height="40" as="geometry" />
        </mxCell>
        <mxCell id="k1eU6KsLXiB16MR6_f5D-8" value="Jabatan" style="ellipse;whiteSpace=wrap;html=1;align=center;" parent="1" vertex="1">
          <mxGeometry x="1020" y="223" width="100" height="40" as="geometry" />
        </mxCell>
        <mxCell id="k1eU6KsLXiB16MR6_f5D-9" value="Email" style="ellipse;whiteSpace=wrap;html=1;align=center;" parent="1" vertex="1">
          <mxGeometry x="1020" y="273" width="100" height="40" as="geometry" />
        </mxCell>
        <mxCell id="k1eU6KsLXiB16MR6_f5D-10" value="No. Telepon" style="ellipse;whiteSpace=wrap;html=1;align=center;" parent="1" vertex="1">
          <mxGeometry x="960" y="314" width="100" height="40" as="geometry" />
        </mxCell>
        <mxCell id="k1eU6KsLXiB16MR6_f5D-12" value="NIS/ NIM" style="ellipse;whiteSpace=wrap;html=1;align=center;" parent="1" vertex="1">
          <mxGeometry x="490" y="134" width="100" height="40" as="geometry" />
        </mxCell>
        <mxCell id="k1eU6KsLXiB16MR6_f5D-13" value="Desc" style="ellipse;whiteSpace=wrap;html=1;align=center;" parent="1" vertex="1">
          <mxGeometry x="660" y="174" width="100" height="40" as="geometry" />
        </mxCell>
        <mxCell id="k1eU6KsLXiB16MR6_f5D-14" value="tanggalMulai" style="ellipse;whiteSpace=wrap;html=1;align=center;" parent="1" vertex="1">
          <mxGeometry x="560" y="100" width="100" height="40" as="geometry" />
        </mxCell>
        <mxCell id="k1eU6KsLXiB16MR6_f5D-15" value="tanggalSelesai" style="ellipse;whiteSpace=wrap;html=1;align=center;" parent="1" vertex="1">
          <mxGeometry x="620" y="134" width="100" height="40" as="geometry" />
        </mxCell>
        <mxCell id="k1eU6KsLXiB16MR6_f5D-18" value="nama" style="ellipse;whiteSpace=wrap;html=1;align=center;" parent="1" vertex="1">
          <mxGeometry x="170" y="610" width="100" height="40" as="geometry" />
        </mxCell>
        <mxCell id="k1eU6KsLXiB16MR6_f5D-19" value="id_karyawan" style="ellipse;whiteSpace=wrap;html=1;align=center;" parent="1" vertex="1">
          <mxGeometry x="95" y="570" width="100" height="40" as="geometry" />
        </mxCell>
        <mxCell id="k1eU6KsLXiB16MR6_f5D-20" value="jabatan" style="ellipse;whiteSpace=wrap;html=1;align=center;" parent="1" vertex="1">
          <mxGeometry x="250" y="580" width="100" height="40" as="geometry" />
        </mxCell>
        <mxCell id="k1eU6KsLXiB16MR6_f5D-21" value="departement" style="ellipse;whiteSpace=wrap;html=1;align=center;" parent="1" vertex="1">
          <mxGeometry x="290" y="540" width="100" height="40" as="geometry" />
        </mxCell>
        <mxCell id="k1eU6KsLXiB16MR6_f5D-22" value="status" style="ellipse;whiteSpace=wrap;html=1;align=center;" parent="1" vertex="1">
          <mxGeometry x="1010" y="440" width="100" height="40" as="geometry" />
        </mxCell>
        <mxCell id="k1eU6KsLXiB16MR6_f5D-23" value="tanggalLamar" style="ellipse;whiteSpace=wrap;html=1;align=center;" parent="1" vertex="1">
          <mxGeometry x="1020" y="490" width="100" height="40" as="geometry" />
        </mxCell>
        <mxCell id="k1eU6KsLXiB16MR6_f5D-24" value="idLamaran" style="ellipse;whiteSpace=wrap;html=1;align=center;" parent="1" vertex="1">
          <mxGeometry x="1010" y="380" width="100" height="40" as="geometry" />
        </mxCell>
        <mxCell id="k1eU6KsLXiB16MR6_f5D-25" value="email" style="ellipse;whiteSpace=wrap;html=1;align=center;" parent="1" vertex="1">
          <mxGeometry x="230" y="154" width="100" height="40" as="geometry" />
        </mxCell>
        <mxCell id="k1eU6KsLXiB16MR6_f5D-26" value="jurusan" style="ellipse;whiteSpace=wrap;html=1;align=center;" parent="1" vertex="1">
          <mxGeometry x="270" y="194" width="100" height="40" as="geometry" />
        </mxCell>
        <mxCell id="k1eU6KsLXiB16MR6_f5D-27" value="Nama" style="ellipse;whiteSpace=wrap;html=1;align=center;" parent="1" vertex="1">
          <mxGeometry x="100" y="134" width="100" height="40" as="geometry" />
        </mxCell>
        <mxCell id="k1eU6KsLXiB16MR6_f5D-28" value="sekolah/ univ" style="ellipse;whiteSpace=wrap;html=1;align=center;" parent="1" vertex="1">
          <mxGeometry x="190" y="114" width="100" height="40" as="geometry" />
        </mxCell>
        <mxCell id="k1eU6KsLXiB16MR6_f5D-31" value="Siswa/ mahasiswa" style="whiteSpace=wrap;html=1;align=center;" parent="1" vertex="1">
          <mxGeometry x="180" y="244" width="100" height="40" as="geometry" />
        </mxCell>
        <mxCell id="k1eU6KsLXiB16MR6_f5D-32" value="Pembimbing magang" style="whiteSpace=wrap;html=1;align=center;" parent="1" vertex="1">
          <mxGeometry x="180" y="490" width="100" height="40" as="geometry" />
        </mxCell>
        <mxCell id="k1eU6KsLXiB16MR6_f5D-33" value="Magang" style="whiteSpace=wrap;html=1;align=center;" parent="1" vertex="1">
          <mxGeometry x="560" y="244" width="100" height="40" as="geometry" />
        </mxCell>
        <mxCell id="k1eU6KsLXiB16MR6_f5D-35" value="HRD" style="whiteSpace=wrap;html=1;align=center;" parent="1" vertex="1">
          <mxGeometry x="890" y="248" width="100" height="40" as="geometry" />
        </mxCell>
        <mxCell id="k1eU6KsLXiB16MR6_f5D-37" value="memilih" style="shape=rhombus;perimeter=rhombusPerimeter;whiteSpace=wrap;html=1;align=center;" parent="1" vertex="1">
          <mxGeometry x="370" y="234" width="120" height="60" as="geometry" />
        </mxCell>
        <mxCell id="k1eU6KsLXiB16MR6_f5D-40" value="Dikelola" style="shape=rhombus;perimeter=rhombusPerimeter;whiteSpace=wrap;html=1;align=center;" parent="1" vertex="1">
          <mxGeometry x="710" y="238" width="120" height="60" as="geometry" />
        </mxCell>
        <mxCell id="k1eU6KsLXiB16MR6_f5D-41" value="persetujuan" style="shape=rhombus;perimeter=rhombusPerimeter;whiteSpace=wrap;html=1;align=center;" parent="1" vertex="1">
          <mxGeometry x="890" y="354" width="100" height="40" as="geometry" />
        </mxCell>
        <mxCell id="pfQJ8zjxVDlfK5BdpRK2-1" value="NIP" style="ellipse;whiteSpace=wrap;html=1;align=center;fontStyle=4;" parent="1" vertex="1">
          <mxGeometry x="910" y="154" width="100" height="40" as="geometry" />
        </mxCell>
        <mxCell id="pfQJ8zjxVDlfK5BdpRK2-2" value="idMagang" style="ellipse;whiteSpace=wrap;html=1;align=center;fontStyle=4;" parent="1" vertex="1">
          <mxGeometry x="470" y="174" width="100" height="40" as="geometry" />
        </mxCell>
        <mxCell id="pfQJ8zjxVDlfK5BdpRK2-3" value="NIS/ NIP" style="ellipse;whiteSpace=wrap;html=1;align=center;fontStyle=4;" parent="1" vertex="1">
          <mxGeometry x="80" y="174" width="100" height="40" as="geometry" />
        </mxCell>
        <mxCell id="pfQJ8zjxVDlfK5BdpRK2-4" value="idPembimbing" style="ellipse;whiteSpace=wrap;html=1;align=center;fontStyle=4;" parent="1" vertex="1">
          <mxGeometry x="80" y="530" width="100" height="40" as="geometry" />
        </mxCell>
        <mxCell id="pfQJ8zjxVDlfK5BdpRK2-7" value="" style="endArrow=none;html=1;rounded=0;exitX=0.726;exitY=-0.025;exitDx=0;exitDy=0;entryX=0.5;entryY=1;entryDx=0;entryDy=0;exitPerimeter=0;" parent="1" source="k1eU6KsLXiB16MR6_f5D-35" edge="1" target="pfQJ8zjxVDlfK5BdpRK2-1">
          <mxGeometry width="50" height="50" relative="1" as="geometry">
            <mxPoint x="940" y="244" as="sourcePoint" />
            <mxPoint x="939.89" y="184.06" as="targetPoint" />
          </mxGeometry>
        </mxCell>
        <mxCell id="pfQJ8zjxVDlfK5BdpRK2-14" value="" style="endArrow=none;html=1;rounded=0;exitX=0.25;exitY=0;exitDx=0;exitDy=0;" parent="1" source="k1eU6KsLXiB16MR6_f5D-31" edge="1">
          <mxGeometry width="50" height="50" relative="1" as="geometry">
            <mxPoint x="125" y="254" as="sourcePoint" />
            <mxPoint x="175" y="204" as="targetPoint" />
          </mxGeometry>
        </mxCell>
        <mxCell id="pfQJ8zjxVDlfK5BdpRK2-15" value="" style="endArrow=none;html=1;rounded=0;exitX=0.4;exitY=0;exitDx=0;exitDy=0;exitPerimeter=0;" parent="1" source="k1eU6KsLXiB16MR6_f5D-31" edge="1">
          <mxGeometry width="50" height="50" relative="1" as="geometry">
            <mxPoint x="140" y="214" as="sourcePoint" />
            <mxPoint x="190" y="164" as="targetPoint" />
          </mxGeometry>
        </mxCell>
        <mxCell id="pfQJ8zjxVDlfK5BdpRK2-16" value="" style="endArrow=none;html=1;rounded=0;" parent="1" source="k1eU6KsLXiB16MR6_f5D-31" edge="1">
          <mxGeometry width="50" height="50" relative="1" as="geometry">
            <mxPoint x="180" y="204" as="sourcePoint" />
            <mxPoint x="230" y="154" as="targetPoint" />
          </mxGeometry>
        </mxCell>
        <mxCell id="pfQJ8zjxVDlfK5BdpRK2-17" value="" style="endArrow=none;html=1;rounded=0;" parent="1" edge="1">
          <mxGeometry width="50" height="50" relative="1" as="geometry">
            <mxPoint x="243" y="244" as="sourcePoint" />
            <mxPoint x="260" y="194" as="targetPoint" />
          </mxGeometry>
        </mxCell>
        <mxCell id="pfQJ8zjxVDlfK5BdpRK2-18" value="" style="endArrow=none;html=1;rounded=0;exitX=0.556;exitY=-0.056;exitDx=0;exitDy=0;exitPerimeter=0;entryX=0.238;entryY=0.933;entryDx=0;entryDy=0;entryPerimeter=0;" parent="1" target="k1eU6KsLXiB16MR6_f5D-26" edge="1">
          <mxGeometry width="50" height="50" relative="1" as="geometry">
            <mxPoint x="266" y="244" as="sourcePoint" />
            <mxPoint x="290" y="196" as="targetPoint" />
          </mxGeometry>
        </mxCell>
        <mxCell id="pfQJ8zjxVDlfK5BdpRK2-19" value="" style="endArrow=none;html=1;rounded=0;exitX=0.556;exitY=-0.056;exitDx=0;exitDy=0;exitPerimeter=0;entryX=0;entryY=0.5;entryDx=0;entryDy=0;" parent="1" target="k1eU6KsLXiB16MR6_f5D-37" edge="1">
          <mxGeometry width="50" height="50" relative="1" as="geometry">
            <mxPoint x="280" y="264" as="sourcePoint" />
            <mxPoint x="308" y="251" as="targetPoint" />
          </mxGeometry>
        </mxCell>
        <mxCell id="LbUkZwQk8emgP_RtU1f0-1" value="" style="endArrow=none;html=1;rounded=0;exitX=0.596;exitY=0.011;exitDx=0;exitDy=0;exitPerimeter=0;entryX=0.197;entryY=0.892;entryDx=0;entryDy=0;entryPerimeter=0;" edge="1" parent="1" source="k1eU6KsLXiB16MR6_f5D-34" target="k1eU6KsLXiB16MR6_f5D-22">
          <mxGeometry width="50" height="50" relative="1" as="geometry">
            <mxPoint x="1005.95" y="449.9999999999999" as="sourcePoint" />
            <mxPoint x="1052.05" y="441.27" as="targetPoint" />
          </mxGeometry>
        </mxCell>
        <mxCell id="LbUkZwQk8emgP_RtU1f0-3" value="" style="endArrow=none;html=1;rounded=0;exitX=0.96;exitY=-0.007;exitDx=0;exitDy=0;entryX=0.5;entryY=1;entryDx=0;entryDy=0;exitPerimeter=0;" edge="1" parent="1" source="k1eU6KsLXiB16MR6_f5D-34" target="k1eU6KsLXiB16MR6_f5D-24">
          <mxGeometry width="50" height="50" relative="1" as="geometry">
            <mxPoint x="1085.4" y="440.1600000000001" as="sourcePoint" />
            <mxPoint x="1099" y="369.43" as="targetPoint" />
          </mxGeometry>
        </mxCell>
        <mxCell id="LbUkZwQk8emgP_RtU1f0-4" value="" style="endArrow=none;html=1;rounded=0;entryX=0.317;entryY=0.977;entryDx=0;entryDy=0;entryPerimeter=0;" edge="1" parent="1" source="k1eU6KsLXiB16MR6_f5D-33">
          <mxGeometry width="50" height="50" relative="1" as="geometry">
            <mxPoint x="633.3" y="214" as="sourcePoint" />
            <mxPoint x="660" y="173.08000000000004" as="targetPoint" />
          </mxGeometry>
        </mxCell>
        <mxCell id="LbUkZwQk8emgP_RtU1f0-5" value="" style="endArrow=none;html=1;rounded=0;entryX=0.82;entryY=0.91;entryDx=0;entryDy=0;entryPerimeter=0;" edge="1" parent="1" source="k1eU6KsLXiB16MR6_f5D-33" target="k1eU6KsLXiB16MR6_f5D-12">
          <mxGeometry width="50" height="50" relative="1" as="geometry">
            <mxPoint x="599.9000000000001" y="198.72" as="sourcePoint" />
            <mxPoint x="570.0000000000002" y="159.99999999999997" as="targetPoint" />
          </mxGeometry>
        </mxCell>
        <mxCell id="LbUkZwQk8emgP_RtU1f0-6" value="" style="endArrow=none;html=1;rounded=0;entryX=0.731;entryY=0.958;entryDx=0;entryDy=0;entryPerimeter=0;exitX=0.035;exitY=0.017;exitDx=0;exitDy=0;exitPerimeter=0;" edge="1" parent="1" source="k1eU6KsLXiB16MR6_f5D-33" target="pfQJ8zjxVDlfK5BdpRK2-2">
          <mxGeometry width="50" height="50" relative="1" as="geometry">
            <mxPoint x="569.9961103560399" y="255.49740071794707" as="sourcePoint" />
            <mxPoint x="542.45" y="209.99999999999994" as="targetPoint" />
          </mxGeometry>
        </mxCell>
        <mxCell id="LbUkZwQk8emgP_RtU1f0-7" value="" style="endArrow=none;html=1;rounded=0;exitX=0;exitY=0.5;exitDx=0;exitDy=0;entryX=1;entryY=0.5;entryDx=0;entryDy=0;" edge="1" parent="1" source="k1eU6KsLXiB16MR6_f5D-33" target="k1eU6KsLXiB16MR6_f5D-37">
          <mxGeometry width="50" height="50" relative="1" as="geometry">
            <mxPoint x="450" y="309.44" as="sourcePoint" />
            <mxPoint x="500" y="268" as="targetPoint" />
          </mxGeometry>
        </mxCell>
        <mxCell id="LbUkZwQk8emgP_RtU1f0-8" value="" style="endArrow=none;html=1;rounded=0;" edge="1" parent="1" target="k1eU6KsLXiB16MR6_f5D-33">
          <mxGeometry width="50" height="50" relative="1" as="geometry">
            <mxPoint x="680" y="210" as="sourcePoint" />
            <mxPoint x="659.15" y="234" as="targetPoint" />
          </mxGeometry>
        </mxCell>
        <mxCell id="LbUkZwQk8emgP_RtU1f0-9" value="" style="endArrow=none;html=1;rounded=0;entryX=1;entryY=0.5;entryDx=0;entryDy=0;" edge="1" parent="1" source="k1eU6KsLXiB16MR6_f5D-33">
          <mxGeometry width="50" height="50" relative="1" as="geometry">
            <mxPoint x="650" y="140" as="sourcePoint" />
            <mxPoint x="610" y="140" as="targetPoint" />
          </mxGeometry>
        </mxCell>
        <mxCell id="LbUkZwQk8emgP_RtU1f0-11" value="" style="endArrow=none;html=1;rounded=0;exitX=0.945;exitY=0.007;exitDx=0;exitDy=0;entryX=0.069;entryY=0.776;entryDx=0;entryDy=0;exitPerimeter=0;entryPerimeter=0;" edge="1" parent="1" source="k1eU6KsLXiB16MR6_f5D-35" target="k1eU6KsLXiB16MR6_f5D-7">
          <mxGeometry width="50" height="50" relative="1" as="geometry">
            <mxPoint x="1010" y="257" as="sourcePoint" />
            <mxPoint x="1007" y="204" as="targetPoint" />
          </mxGeometry>
        </mxCell>
        <mxCell id="LbUkZwQk8emgP_RtU1f0-12" value="" style="endArrow=none;html=1;rounded=0;exitX=1;exitY=0.343;exitDx=0;exitDy=0;entryX=0;entryY=0.5;entryDx=0;entryDy=0;exitPerimeter=0;" edge="1" parent="1" source="k1eU6KsLXiB16MR6_f5D-35">
          <mxGeometry width="50" height="50" relative="1" as="geometry">
            <mxPoint x="983" y="267" as="sourcePoint" />
            <mxPoint x="1019.9999999999914" y="243.9999999999999" as="targetPoint" />
          </mxGeometry>
        </mxCell>
        <mxCell id="LbUkZwQk8emgP_RtU1f0-13" value="" style="endArrow=none;html=1;rounded=0;exitX=1.001;exitY=0.86;exitDx=0;exitDy=0;entryX=-0.002;entryY=0.478;entryDx=0;entryDy=0;exitPerimeter=0;entryPerimeter=0;" edge="1" parent="1" source="k1eU6KsLXiB16MR6_f5D-35">
          <mxGeometry width="50" height="50" relative="1" as="geometry">
            <mxPoint x="993" y="277" as="sourcePoint" />
            <mxPoint x="1019.8000000000002" y="293.1199999999999" as="targetPoint" />
          </mxGeometry>
        </mxCell>
        <mxCell id="LbUkZwQk8emgP_RtU1f0-14" value="" style="endArrow=none;html=1;rounded=0;exitX=0.661;exitY=1.013;exitDx=0;exitDy=0;entryX=0.295;entryY=0.046;entryDx=0;entryDy=0;exitPerimeter=0;entryPerimeter=0;" edge="1" parent="1" source="k1eU6KsLXiB16MR6_f5D-35" target="k1eU6KsLXiB16MR6_f5D-10">
          <mxGeometry width="50" height="50" relative="1" as="geometry">
            <mxPoint x="1003" y="287" as="sourcePoint" />
            <mxPoint x="1000" y="234" as="targetPoint" />
          </mxGeometry>
        </mxCell>
        <mxCell id="LbUkZwQk8emgP_RtU1f0-15" value="" style="endArrow=none;html=1;rounded=0;exitX=0.556;exitY=-0.056;exitDx=0;exitDy=0;exitPerimeter=0;" edge="1" parent="1" target="k1eU6KsLXiB16MR6_f5D-34">
          <mxGeometry width="50" height="50" relative="1" as="geometry">
            <mxPoint x="899" y="470" as="sourcePoint" />
            <mxPoint x="959" y="470" as="targetPoint" />
          </mxGeometry>
        </mxCell>
        <mxCell id="k1eU6KsLXiB16MR6_f5D-34" value="Lamaran" style="whiteSpace=wrap;html=1;align=center;" parent="1" vertex="1">
          <mxGeometry x="890" y="440" width="100" height="40" as="geometry" />
        </mxCell>
        <mxCell id="LbUkZwQk8emgP_RtU1f0-16" value="" style="endArrow=none;html=1;rounded=0;exitX=0.75;exitY=1;exitDx=0;exitDy=0;entryX=0.317;entryY=0.992;entryDx=0;entryDy=0;entryPerimeter=0;" edge="1" parent="1" source="k1eU6KsLXiB16MR6_f5D-34" target="k1eU6KsLXiB16MR6_f5D-23">
          <mxGeometry width="50" height="50" relative="1" as="geometry">
            <mxPoint x="890" y="490" as="sourcePoint" />
            <mxPoint x="1065" y="470" as="targetPoint" />
          </mxGeometry>
        </mxCell>
        <mxCell id="LbUkZwQk8emgP_RtU1f0-17" value="memilih" style="shape=rhombus;perimeter=rhombusPerimeter;whiteSpace=wrap;html=1;align=center;" vertex="1" parent="1">
          <mxGeometry x="180" y="375" width="100" height="50" as="geometry" />
        </mxCell>
        <mxCell id="LbUkZwQk8emgP_RtU1f0-18" value="" style="endArrow=none;html=1;rounded=0;entryX=0.358;entryY=1.015;entryDx=0;entryDy=0;entryPerimeter=0;" edge="1" parent="1" target="k1eU6KsLXiB16MR6_f5D-32">
          <mxGeometry width="50" height="50" relative="1" as="geometry">
            <mxPoint x="180" y="550" as="sourcePoint" />
            <mxPoint x="230" y="500" as="targetPoint" />
          </mxGeometry>
        </mxCell>
        <mxCell id="LbUkZwQk8emgP_RtU1f0-19" value="" style="endArrow=none;html=1;rounded=0;entryX=0.379;entryY=1.009;entryDx=0;entryDy=0;entryPerimeter=0;" edge="1" parent="1" target="k1eU6KsLXiB16MR6_f5D-32">
          <mxGeometry width="50" height="50" relative="1" as="geometry">
            <mxPoint x="187.5" y="580" as="sourcePoint" />
            <mxPoint x="222.5" y="562" as="targetPoint" />
          </mxGeometry>
        </mxCell>
        <mxCell id="LbUkZwQk8emgP_RtU1f0-20" value="" style="endArrow=none;html=1;rounded=0;entryX=0.459;entryY=1.004;entryDx=0;entryDy=0;entryPerimeter=0;" edge="1" parent="1" target="k1eU6KsLXiB16MR6_f5D-32">
          <mxGeometry width="50" height="50" relative="1" as="geometry">
            <mxPoint x="220" y="609" as="sourcePoint" />
            <mxPoint x="255" y="591" as="targetPoint" />
          </mxGeometry>
        </mxCell>
        <mxCell id="LbUkZwQk8emgP_RtU1f0-21" value="" style="endArrow=none;html=1;rounded=0;entryX=0.5;entryY=1;entryDx=0;entryDy=0;exitX=0.195;exitY=0.21;exitDx=0;exitDy=0;exitPerimeter=0;" edge="1" parent="1" source="k1eU6KsLXiB16MR6_f5D-20" target="k1eU6KsLXiB16MR6_f5D-32">
          <mxGeometry width="50" height="50" relative="1" as="geometry">
            <mxPoint x="255" y="588" as="sourcePoint" />
            <mxPoint x="290" y="570" as="targetPoint" />
          </mxGeometry>
        </mxCell>
        <mxCell id="LbUkZwQk8emgP_RtU1f0-22" value="" style="endArrow=none;html=1;rounded=0;entryX=0.347;entryY=1.057;entryDx=0;entryDy=0;entryPerimeter=0;exitX=0.592;exitY=0.993;exitDx=0;exitDy=0;exitPerimeter=0;" edge="1" parent="1" source="k1eU6KsLXiB16MR6_f5D-32">
          <mxGeometry width="50" height="50" relative="1" as="geometry">
            <mxPoint x="255" y="570" as="sourcePoint" />
            <mxPoint x="290" y="552" as="targetPoint" />
          </mxGeometry>
        </mxCell>
        <mxCell id="LbUkZwQk8emgP_RtU1f0-24" value="" style="endArrow=none;html=1;rounded=0;entryX=0;entryY=0.5;entryDx=0;entryDy=0;" edge="1" parent="1" target="k1eU6KsLXiB16MR6_f5D-40">
          <mxGeometry width="50" height="50" relative="1" as="geometry">
            <mxPoint x="660" y="268" as="sourcePoint" />
            <mxPoint x="710" y="218" as="targetPoint" />
          </mxGeometry>
        </mxCell>
        <mxCell id="LbUkZwQk8emgP_RtU1f0-25" value="" style="endArrow=none;html=1;rounded=0;entryX=0;entryY=0.5;entryDx=0;entryDy=0;" edge="1" parent="1" target="k1eU6KsLXiB16MR6_f5D-35">
          <mxGeometry width="50" height="50" relative="1" as="geometry">
            <mxPoint x="830" y="267.66" as="sourcePoint" />
            <mxPoint x="880" y="267.66" as="targetPoint" />
          </mxGeometry>
        </mxCell>
        <mxCell id="LbUkZwQk8emgP_RtU1f0-26" value="" style="endArrow=none;html=1;rounded=0;entryX=0.5;entryY=0;entryDx=0;entryDy=0;exitX=0.5;exitY=1;exitDx=0;exitDy=0;" edge="1" parent="1" source="k1eU6KsLXiB16MR6_f5D-35" target="k1eU6KsLXiB16MR6_f5D-41">
          <mxGeometry width="50" height="50" relative="1" as="geometry">
            <mxPoint x="920" y="288" as="sourcePoint" />
            <mxPoint x="980" y="288.34" as="targetPoint" />
          </mxGeometry>
        </mxCell>
        <mxCell id="LbUkZwQk8emgP_RtU1f0-27" value="" style="endArrow=none;html=1;rounded=0;exitX=0.5;exitY=1;exitDx=0;exitDy=0;" edge="1" parent="1">
          <mxGeometry width="50" height="50" relative="1" as="geometry">
            <mxPoint x="939.66" y="394" as="sourcePoint" />
            <mxPoint x="940" y="440" as="targetPoint" />
          </mxGeometry>
        </mxCell>
        <mxCell id="LbUkZwQk8emgP_RtU1f0-30" value="" style="endArrow=none;html=1;rounded=0;exitX=0.5;exitY=0;exitDx=0;exitDy=0;entryX=0.5;entryY=1;entryDx=0;entryDy=0;" edge="1" parent="1" source="k1eU6KsLXiB16MR6_f5D-32" target="LbUkZwQk8emgP_RtU1f0-17">
          <mxGeometry width="50" height="50" relative="1" as="geometry">
            <mxPoint x="280" y="490" as="sourcePoint" />
            <mxPoint x="330" y="440" as="targetPoint" />
          </mxGeometry>
        </mxCell>
        <mxCell id="LbUkZwQk8emgP_RtU1f0-31" value="" style="endArrow=none;html=1;rounded=0;exitX=0.5;exitY=0;exitDx=0;exitDy=0;" edge="1" parent="1" source="LbUkZwQk8emgP_RtU1f0-17">
          <mxGeometry width="50" height="50" relative="1" as="geometry">
            <mxPoint x="180" y="334" as="sourcePoint" />
            <mxPoint x="230" y="284" as="targetPoint" />
          </mxGeometry>
        </mxCell>
        <mxCell id="LbUkZwQk8emgP_RtU1f0-32" value="1" style="text;html=1;align=center;verticalAlign=middle;resizable=0;points=[];autosize=1;strokeColor=none;fillColor=none;" vertex="1" parent="1">
          <mxGeometry x="275" y="238" width="30" height="30" as="geometry" />
        </mxCell>
        <mxCell id="LbUkZwQk8emgP_RtU1f0-33" value="1" style="text;html=1;align=center;verticalAlign=middle;resizable=0;points=[];autosize=1;strokeColor=none;fillColor=none;" vertex="1" parent="1">
          <mxGeometry x="535" y="238" width="30" height="30" as="geometry" />
        </mxCell>
        <mxCell id="LbUkZwQk8emgP_RtU1f0-34" value="1" style="text;html=1;align=center;verticalAlign=middle;resizable=0;points=[];autosize=1;strokeColor=none;fillColor=none;" vertex="1" parent="1">
          <mxGeometry x="205" y="468" width="30" height="30" as="geometry" />
        </mxCell>
        <mxCell id="LbUkZwQk8emgP_RtU1f0-35" value="N" style="text;html=1;align=center;verticalAlign=middle;resizable=0;points=[];autosize=1;strokeColor=none;fillColor=none;" vertex="1" parent="1">
          <mxGeometry x="205" y="283" width="30" height="30" as="geometry" />
        </mxCell>
        <mxCell id="LbUkZwQk8emgP_RtU1f0-36" value="M" style="text;html=1;align=center;verticalAlign=middle;resizable=0;points=[];autosize=1;strokeColor=none;fillColor=none;" vertex="1" parent="1">
          <mxGeometry x="660" y="238" width="30" height="30" as="geometry" />
        </mxCell>
        <mxCell id="LbUkZwQk8emgP_RtU1f0-37" value="N" style="text;html=1;align=center;verticalAlign=middle;resizable=0;points=[];autosize=1;strokeColor=none;fillColor=none;" vertex="1" parent="1">
          <mxGeometry x="860" y="243" width="30" height="30" as="geometry" />
        </mxCell>
        <mxCell id="LbUkZwQk8emgP_RtU1f0-38" value="1" style="text;html=1;align=center;verticalAlign=middle;resizable=0;points=[];autosize=1;strokeColor=none;fillColor=none;" vertex="1" parent="1">
          <mxGeometry x="910" y="288" width="30" height="30" as="geometry" />
        </mxCell>
        <mxCell id="LbUkZwQk8emgP_RtU1f0-39" value="N" style="text;html=1;align=center;verticalAlign=middle;resizable=0;points=[];autosize=1;strokeColor=none;fillColor=none;" vertex="1" parent="1">
          <mxGeometry x="915" y="418" width="30" height="30" as="geometry" />
        </mxCell>
      </root>
    </mxGraphModel>
  </diagram>
</mxfile>
